<?xml version="1.0" encoding="UTF-8"?>
<svg xmlns="http://www.w3.org/2000/svg" xmlns:xlink="http://www.w3.org/1999/xlink" width="50px" height="50px" viewBox="0 0 50 50" version="1.1">
<g id="surface1">
<path style=" stroke:none;fill-rule:nonzero;fill:rgb(0%,0%,0%);fill-opacity:1;" d="M 26.023438 1.609375 C 28.582031 1.570312 31.121094 1.589844 33.660156 1.570312 C 33.734375 4.617188 34.957031 7.527344 37.078125 9.714844 L 37.078125 9.710938 C 39.355469 11.761719 42.253906 12.992188 45.3125 13.203125 L 45.355469 13.207031 L 45.355469 21.074219 C 42.472656 21.011719 39.636719 20.347656 37.027344 19.125 L 37.15625 19.179688 C 36.027344 18.640625 34.941406 18.015625 33.910156 17.3125 L 33.992188 17.363281 C 33.972656 23.066406 34.007812 28.765625 33.953125 34.449219 C 33.804688 37.226562 32.882812 39.910156 31.285156 42.1875 L 31.316406 42.140625 C 28.734375 45.835938 24.554688 48.265625 19.796875 48.40625 L 19.777344 48.40625 C 16.957031 48.539062 14.160156 47.828125 11.746094 46.359375 L 11.808594 46.398438 C 7.890625 44.039062 5.1875 40.003906 4.6875 35.3125 L 4.679688 35.25 C 4.636719 34.277344 4.628906 33.308594 4.664062 32.339844 C 5.429688 24.871094 11.683594 19.09375 19.289062 19.09375 C 20.144531 19.097656 20.980469 19.167969 21.796875 19.308594 L 21.707031 19.296875 C 21.746094 22.183594 21.628906 25.074219 21.628906 27.964844 C 18.140625 26.742188 14.320312 28.570312 13.089844 32.054688 L 13.078125 32.101562 C 12.867188 32.769531 12.75 33.539062 12.75 34.332031 C 12.75 34.652344 12.769531 34.972656 12.804688 35.285156 L 12.804688 35.246094 C 13.335938 38.582031 16.277344 40.988281 19.648438 40.851562 L 19.636719 40.851562 C 21.84375 40.785156 23.871094 39.613281 25.027344 37.734375 L 25.042969 37.707031 C 25.460938 37.125 25.746094 36.421875 25.84375 35.65625 L 25.84375 35.636719 C 26.039062 32.140625 25.960938 28.664062 25.980469 25.171875 C 26 17.300781 25.960938 9.453125 26.019531 1.601562 Z M 26.023438 1.609375 "/>
</g>
</svg>
